<svg width="113" height="27" viewBox="0 0 113 27" fill="none" xmlns="http://www.w3.org/2000/svg">
<path d="M10.7061 3.81348C10.7061 4.32064 10.5793 4.79378 10.3257 5.23291C10.0783 5.67204 9.75358 6.05241 9.35156 6.37402C8.95573 6.69564 8.51351 6.94922 8.0249 7.13477C7.5363 7.31413 7.05387 7.39762 6.57764 7.38525H6.4292V7.21826C6.8374 7.13167 7.22087 6.98324 7.57959 6.77295C7.9445 6.55648 8.25993 6.29362 8.52588 5.98438C8.79801 5.67513 9.01139 5.32878 9.16602 4.94531C9.32682 4.56185 9.40723 4.15983 9.40723 3.73926C9.40723 3.46094 9.37321 3.19808 9.30518 2.95068C9.23714 2.70329 9.132 2.48991 8.98975 2.31055C8.84749 2.13118 8.66504 1.98893 8.44238 1.88379C8.22591 1.77865 7.96615 1.72607 7.66309 1.72607C7.23014 1.72607 6.79102 1.79102 6.3457 1.9209C5.90039 2.05078 5.47054 2.23324 5.05615 2.46826C4.64176 2.70329 4.25212 2.98161 3.88721 3.30322C3.52848 3.62484 3.21305 3.97738 2.94092 4.36084C2.67497 4.7443 2.46468 5.15251 2.31006 5.58545C2.15544 6.01839 2.07812 6.46061 2.07812 6.91211C2.07812 7.39453 2.14616 7.81201 2.28223 8.16455C2.42448 8.5109 2.61312 8.81706 2.84814 9.08301C3.08936 9.34277 3.36768 9.56543 3.68311 9.75098C3.99854 9.93652 4.33561 10.1066 4.69434 10.2612C5.05306 10.4097 5.41797 10.5488 5.78906 10.6787C6.16634 10.8086 6.53434 10.9478 6.89307 11.0962C7.25179 11.2446 7.58887 11.4116 7.9043 11.5972C8.21973 11.7765 8.49495 11.993 8.72998 12.2466C8.97119 12.494 9.15983 12.7909 9.2959 13.1372C9.43815 13.4774 9.50928 13.8794 9.50928 14.3433C9.50928 14.8504 9.40413 15.3019 9.19385 15.6978C8.98975 16.0936 8.71761 16.4245 8.37744 16.6904C8.03727 16.9626 7.64762 17.1667 7.2085 17.3027C6.76937 17.445 6.31787 17.5161 5.854 17.5161C5.35303 17.5161 4.88916 17.4295 4.4624 17.2563C4.03564 17.0894 3.65218 16.8605 3.31201 16.5698C2.97184 16.2853 2.67497 15.9544 2.42139 15.5771C2.16781 15.2061 1.9637 14.8195 1.80908 14.4175L1.94824 14.3433C2.13379 14.6711 2.34717 14.9927 2.58838 15.3081C2.82959 15.6297 3.10173 15.9142 3.40479 16.1616C3.70785 16.4152 4.04183 16.6193 4.40674 16.7739C4.77783 16.9285 5.17985 17.0059 5.61279 17.0059C5.96533 17.0059 6.29313 16.9564 6.59619 16.8574C6.89925 16.7585 7.16211 16.6162 7.38477 16.4307C7.60742 16.2451 7.7806 16.0163 7.9043 15.7441C8.03418 15.472 8.09912 15.1628 8.09912 14.8164C8.09912 14.3092 7.99089 13.8918 7.77441 13.564C7.55794 13.2362 7.27344 12.9578 6.9209 12.729C6.56836 12.5002 6.16634 12.3053 5.71484 12.1445C5.26335 11.9837 4.79948 11.8229 4.32324 11.6621C3.85319 11.4951 3.39242 11.3096 2.94092 11.1055C2.48942 10.8952 2.0874 10.6323 1.73486 10.3169C1.38232 10.0015 1.09782 9.61182 0.881348 9.14795C0.664876 8.6779 0.556641 8.1027 0.556641 7.42236C0.556641 6.80387 0.652507 6.22249 0.844238 5.67822C1.03597 5.12777 1.29883 4.6237 1.63281 4.16602C1.97298 3.70833 2.37191 3.30013 2.82959 2.94141C3.28727 2.5765 3.77897 2.26725 4.30469 2.01367C4.83659 1.76009 5.39014 1.56836 5.96533 1.43848C6.54053 1.30241 7.11882 1.23438 7.7002 1.23438C8.11458 1.23438 8.50423 1.28385 8.86914 1.38281C9.24023 1.48177 9.55876 1.63639 9.82471 1.84668C10.0968 2.05078 10.3102 2.31673 10.4648 2.64453C10.6257 2.97233 10.7061 3.36198 10.7061 3.81348ZM18.8237 12.6362C18.7186 12.8589 18.5887 13.0815 18.4341 13.3042C18.2856 13.5207 18.1187 13.7186 17.9331 13.8979C17.7476 14.0711 17.5435 14.2134 17.3208 14.3247C17.0981 14.436 16.86 14.4917 16.6064 14.4917C16.3281 14.4917 16.0869 14.4175 15.8828 14.269C15.6787 14.1268 15.5055 13.9382 15.3633 13.7031C15.221 13.4619 15.1035 13.1867 15.0107 12.8774C14.918 12.5682 14.8407 12.2497 14.7788 11.9219C14.717 11.5941 14.6644 11.2663 14.6211 10.9385C14.584 10.6107 14.5469 10.3107 14.5098 10.0386C14.3118 10.2983 14.1325 10.5736 13.9717 10.8643C13.8109 11.1549 13.6562 11.458 13.5078 11.7734C13.3594 12.0827 13.214 12.3981 13.0718 12.7197C12.9295 13.0413 12.778 13.3599 12.6172 13.6753C12.5801 13.7433 12.543 13.8175 12.5059 13.8979C12.4688 13.9722 12.4255 14.0402 12.376 14.1021C12.3265 14.1701 12.2677 14.2257 12.1997 14.269C12.1317 14.3123 12.0513 14.334 11.9585 14.334C11.8719 14.334 11.7977 14.3185 11.7358 14.2876C11.6802 14.2567 11.6307 14.2165 11.5874 14.167C11.5503 14.1237 11.5194 14.0742 11.4946 14.0186C11.4761 13.9629 11.4606 13.9103 11.4482 13.8608C11.374 13.5949 11.306 13.2609 11.2441 12.8589C11.1885 12.4569 11.139 12.027 11.0957 11.5693C11.0524 11.1117 11.0184 10.6478 10.9937 10.1777C10.9751 9.7015 10.9658 9.26237 10.9658 8.86035C10.9658 8.28516 11.0029 7.6945 11.0771 7.08838C11.1514 6.47607 11.2658 5.87923 11.4204 5.29785C11.5812 4.71647 11.7822 4.16911 12.0234 3.65576C12.2708 3.13623 12.5615 2.68164 12.8955 2.29199C13.2295 1.90234 13.6099 1.5931 14.0366 1.36426C14.4696 1.13542 14.952 1.021 15.4839 1.021C15.8364 1.021 16.1147 1.12614 16.3188 1.33643C16.5229 1.54053 16.625 1.83431 16.625 2.21777C16.625 2.79297 16.5229 3.34652 16.3188 3.87842C16.1209 4.40413 15.8643 4.9082 15.5488 5.39062C15.2396 5.87305 14.8932 6.33073 14.5098 6.76367C14.1325 7.19043 13.7676 7.58626 13.415 7.95117L13.2944 7.8584C13.4491 7.68522 13.613 7.47184 13.7861 7.21826C13.9655 6.9585 14.1387 6.68018 14.3057 6.3833C14.4788 6.08024 14.6427 5.76481 14.7974 5.43701C14.952 5.10303 15.0881 4.77523 15.2056 4.45361C15.3231 4.132 15.4159 3.82275 15.4839 3.52588C15.5519 3.22282 15.5859 2.94759 15.5859 2.7002C15.5859 2.57031 15.5736 2.44661 15.5488 2.3291C15.5241 2.21159 15.4808 2.10954 15.4189 2.02295C15.3571 1.93018 15.2767 1.85905 15.1777 1.80957C15.085 1.75391 14.9705 1.72607 14.8345 1.72607C14.5623 1.72607 14.3057 1.83122 14.0645 2.0415C13.8294 2.25179 13.613 2.5363 13.415 2.89502C13.2171 3.24756 13.0409 3.65885 12.8862 4.12891C12.7378 4.59896 12.6079 5.09066 12.4966 5.604C12.3914 6.11735 12.311 6.63688 12.2554 7.1626C12.1997 7.68831 12.1719 8.18929 12.1719 8.66553C12.1719 8.98714 12.1719 9.31185 12.1719 9.63965C12.1719 9.96745 12.1781 10.3107 12.1904 10.6694C12.209 11.0282 12.2368 11.4085 12.2739 11.8105C12.3172 12.2126 12.376 12.6486 12.4502 13.1187C12.7223 12.4136 13.0099 11.724 13.313 11.0498C13.616 10.3695 13.9438 9.74788 14.2964 9.18506C14.3459 9.10465 14.3953 9.02425 14.4448 8.94385C14.5005 8.86344 14.5592 8.79232 14.6211 8.73047C14.6829 8.66243 14.751 8.60677 14.8252 8.56348C14.8994 8.52018 14.9798 8.49854 15.0664 8.49854C15.1715 8.49854 15.255 8.52946 15.3169 8.59131C15.3787 8.64697 15.4282 8.7181 15.4653 8.80469C15.5024 8.89128 15.5272 8.98405 15.5396 9.08301C15.5581 9.18197 15.5736 9.27165 15.5859 9.35205C15.6107 9.53141 15.6385 9.76335 15.6694 10.0479C15.7004 10.3324 15.7375 10.6385 15.7808 10.9663C15.8241 11.2879 15.8766 11.6126 15.9385 11.9404C16.0065 12.2682 16.09 12.5651 16.189 12.8311C16.2941 13.0908 16.4178 13.3042 16.5601 13.4712C16.7023 13.6382 16.8724 13.7217 17.0703 13.7217C17.2311 13.7217 17.3919 13.6877 17.5527 13.6196C17.7135 13.5516 17.8682 13.465 18.0166 13.3599C18.165 13.2547 18.3011 13.1341 18.4248 12.998C18.5547 12.862 18.6629 12.729 18.7495 12.5991L18.8237 12.6362ZM25.6055 12.6733C25.4941 12.9207 25.3519 13.1434 25.1787 13.3413C25.0117 13.5392 24.8293 13.7093 24.6313 13.8516C24.4334 13.9876 24.2293 14.0928 24.019 14.167C23.8088 14.2474 23.6077 14.2876 23.416 14.2876C23.0573 14.2876 22.7542 14.2257 22.5068 14.1021C22.2594 13.9784 22.0584 13.8114 21.9038 13.6011C21.7492 13.3908 21.6379 13.1434 21.5698 12.8589C21.5018 12.5744 21.4678 12.2713 21.4678 11.9497C21.4678 11.7023 21.4863 11.4456 21.5234 11.1797C21.5605 10.9137 21.6131 10.6571 21.6812 10.4097C21.6935 10.3726 21.7059 10.3293 21.7183 10.2798C21.7306 10.2241 21.7368 10.1777 21.7368 10.1406C21.7368 10.1097 21.7183 10.085 21.6812 10.0664C21.576 10.0293 21.4647 9.99528 21.3472 9.96436C21.2297 9.92725 21.1121 9.88704 20.9946 9.84375C20.8833 9.80046 20.7751 9.75098 20.6699 9.69531C20.571 9.63965 20.4844 9.56852 20.4102 9.48193C20.404 9.85303 20.3421 10.2303 20.2246 10.6138C20.1071 10.991 19.9494 11.356 19.7515 11.7085C19.5597 12.0549 19.334 12.3796 19.0742 12.6826C18.8145 12.9857 18.5392 13.2485 18.2485 13.4712L18.1558 13.3784C18.3351 13.1805 18.499 12.9455 18.6475 12.6733C18.7959 12.4012 18.9227 12.1167 19.0278 11.8198C19.133 11.5229 19.2134 11.223 19.269 10.9199C19.3309 10.6169 19.3618 10.3324 19.3618 10.0664C19.3618 9.93034 19.3494 9.80355 19.3247 9.68604C19.3 9.56234 19.2721 9.44482 19.2412 9.3335C19.2165 9.22217 19.1917 9.11702 19.167 9.01807C19.1423 8.91292 19.1299 8.80778 19.1299 8.70264C19.1299 8.52946 19.1855 8.39339 19.2969 8.29443C19.4082 8.19548 19.5505 8.146 19.7236 8.146C19.8164 8.146 19.8875 8.17383 19.937 8.22949C19.9865 8.27897 20.0298 8.34082 20.0669 8.41504C20.104 8.48926 20.1473 8.56657 20.1968 8.64697C20.2463 8.72738 20.3174 8.79541 20.4102 8.85107C20.5277 8.91911 20.6761 8.96859 20.8555 8.99951C21.0348 9.03044 21.2235 9.05827 21.4214 9.08301C21.6193 9.10775 21.8172 9.13249 22.0151 9.15723C22.2131 9.18197 22.3893 9.22526 22.5439 9.28711C22.7048 9.34277 22.8346 9.42318 22.9336 9.52832C23.0326 9.62728 23.082 9.76335 23.082 9.93652C23.082 10.0231 23.0728 10.1097 23.0542 10.1963C23.0418 10.2767 23.0202 10.354 22.9893 10.4282C22.915 10.688 22.8501 10.9539 22.7944 11.2261C22.745 11.492 22.7202 11.758 22.7202 12.0239C22.7202 12.2528 22.7357 12.4631 22.7666 12.6548C22.8037 12.8403 22.8687 13.0011 22.9614 13.1372C23.0542 13.2733 23.1779 13.3784 23.3325 13.4526C23.4871 13.5269 23.6851 13.564 23.9263 13.564C24.2726 13.564 24.5757 13.4805 24.8354 13.3135C25.0952 13.1403 25.3241 12.9146 25.522 12.6362L25.6055 12.6733ZM29.335 9.13867C29.335 9.20671 29.3102 9.26855 29.2607 9.32422C29.2113 9.3737 29.1525 9.39844 29.0845 9.39844C29.0288 9.39844 28.9701 9.38298 28.9082 9.35205C28.8464 9.31494 28.7752 9.27474 28.6948 9.23145C28.6206 9.18815 28.5309 9.15104 28.4258 9.12012C28.3268 9.08301 28.2124 9.06445 28.0825 9.06445C27.7795 9.06445 27.5073 9.16032 27.2661 9.35205C27.0311 9.5376 26.8301 9.76953 26.6631 10.0479C26.5023 10.3262 26.3786 10.623 26.292 10.9385C26.2054 11.2539 26.1621 11.5384 26.1621 11.792C26.1621 11.9714 26.1776 12.1476 26.2085 12.3208C26.2394 12.4878 26.292 12.6424 26.3662 12.7847C26.4466 12.9207 26.5549 13.0321 26.6909 13.1187C26.827 13.1991 27.0002 13.2393 27.2104 13.2393C27.4331 13.2393 27.6465 13.1991 27.8506 13.1187C28.0547 13.0321 28.2464 12.9207 28.4258 12.7847C28.432 12.5868 28.4629 12.3796 28.5186 12.1631C28.5804 11.9404 28.6577 11.724 28.7505 11.5137C28.8433 11.2972 28.9484 11.0931 29.0659 10.9014C29.1896 10.7096 29.3164 10.5396 29.4463 10.3911L29.5669 10.4653C29.4989 10.6756 29.4494 10.8921 29.4185 11.1147C29.3875 11.3374 29.3721 11.557 29.3721 11.7734C29.3721 11.9961 29.3906 12.2064 29.4277 12.4043C29.4648 12.6022 29.5298 12.7754 29.6226 12.9238C29.7153 13.0661 29.8421 13.1805 30.0029 13.2671C30.1637 13.3475 30.3709 13.3877 30.6245 13.3877C30.9338 13.3877 31.2183 13.3166 31.478 13.1743C31.7378 13.0321 31.9666 12.8527 32.1646 12.6362L32.2388 12.6733C32.1274 12.8898 31.9821 13.097 31.8027 13.2949C31.6234 13.4928 31.4224 13.6722 31.1997 13.833C30.9832 13.9876 30.7513 14.1113 30.5039 14.2041C30.2565 14.2969 30.0122 14.3433 29.771 14.3433C29.4308 14.3433 29.1525 14.2443 28.936 14.0464C28.7196 13.8547 28.5711 13.6104 28.4907 13.3135C28.231 13.5732 27.9403 13.7928 27.6187 13.9722C27.3032 14.1453 26.9692 14.2319 26.6167 14.2319C26.3569 14.2319 26.125 14.1825 25.9209 14.0835C25.723 13.9907 25.556 13.8639 25.4199 13.7031C25.2839 13.5423 25.1787 13.3537 25.1045 13.1372C25.0365 12.9146 25.0024 12.6826 25.0024 12.4414C25.0024 12.1631 25.0457 11.8786 25.1323 11.5879C25.2251 11.291 25.3488 11.0003 25.5034 10.7158C25.6642 10.4313 25.8529 10.1623 26.0693 9.90869C26.2858 9.65511 26.5208 9.43245 26.7744 9.24072C27.0342 9.04899 27.3063 8.89746 27.5908 8.78613C27.8753 8.6748 28.166 8.61914 28.4629 8.61914C28.5309 8.61914 28.6144 8.62842 28.7134 8.64697C28.8123 8.65934 28.9082 8.68408 29.001 8.72119C29.0938 8.7583 29.1711 8.81087 29.2329 8.87891C29.3009 8.94694 29.335 9.03353 29.335 9.13867ZM38.0186 2.50537C38.0186 2.93213 37.9567 3.35579 37.833 3.77637C37.7155 4.19076 37.5516 4.59587 37.3413 4.9917C37.131 5.38135 36.8805 5.75553 36.5898 6.11426C36.3053 6.4668 35.9961 6.7946 35.6621 7.09766C35.3281 7.39453 34.9787 7.66667 34.6138 7.91406C34.2489 8.15527 33.884 8.35628 33.519 8.51709L33.4541 8.37793C33.9118 8.16146 34.3478 7.85531 34.7622 7.45947C35.1828 7.05745 35.5508 6.60905 35.8662 6.11426C36.1878 5.61328 36.4414 5.08757 36.627 4.53711C36.8187 3.98665 36.9146 3.44857 36.9146 2.92285C36.9146 2.81771 36.9053 2.70947 36.8867 2.59814C36.8743 2.48682 36.8434 2.38477 36.7939 2.29199C36.7507 2.19922 36.6888 2.125 36.6084 2.06934C36.528 2.00749 36.4229 1.97656 36.293 1.97656C35.9281 1.97656 35.591 2.10026 35.2817 2.34766C34.9725 2.59505 34.6911 2.92594 34.4375 3.34033C34.1901 3.74854 33.9705 4.21859 33.7788 4.75049C33.5871 5.28239 33.4263 5.82975 33.2964 6.39258C33.1665 6.9554 33.0675 7.51204 32.9995 8.0625C32.9377 8.61296 32.9067 9.11702 32.9067 9.57471C32.9067 9.81592 32.9191 10.085 32.9438 10.3818C32.9748 10.6725 33.0243 10.9663 33.0923 11.2632C33.1665 11.5601 33.2593 11.8507 33.3706 12.1353C33.4881 12.4136 33.6335 12.661 33.8066 12.8774C33.986 13.0939 34.1963 13.2702 34.4375 13.4062C34.6787 13.5361 34.9601 13.6011 35.2817 13.6011C35.4858 13.6011 35.659 13.5609 35.8013 13.4805C35.9497 13.4001 36.0672 13.2918 36.1538 13.1558C36.2466 13.0197 36.3146 12.8651 36.3579 12.6919C36.4012 12.5187 36.4229 12.3424 36.4229 12.1631C36.4229 11.8848 36.3826 11.591 36.3022 11.2817C36.228 10.9725 36.1105 10.6911 35.9497 10.4375C35.7951 10.1839 35.5972 9.97363 35.356 9.80664C35.1147 9.63965 34.8302 9.55615 34.5024 9.55615C34.4097 9.55615 34.3138 9.56543 34.2148 9.58398C34.1221 9.59635 34.0293 9.618 33.9365 9.64893L33.8809 9.55615C34.1097 9.38298 34.3571 9.23763 34.623 9.12012C34.8952 8.99642 35.1797 8.93457 35.4766 8.93457C35.792 8.93457 36.0734 9.0026 36.3208 9.13867C36.5682 9.27474 36.7754 9.45101 36.9424 9.66748C37.1156 9.88395 37.2454 10.1344 37.332 10.4189C37.4248 10.6973 37.4712 10.9787 37.4712 11.2632C37.4712 11.6899 37.397 12.0889 37.2485 12.46C37.1063 12.8311 36.9053 13.1558 36.6455 13.4341C36.3857 13.7062 36.0734 13.9196 35.7085 14.0742C35.3498 14.2288 34.9539 14.3062 34.521 14.3062C34.1499 14.3062 33.8221 14.2381 33.5376 14.1021C33.2593 13.9722 33.015 13.7959 32.8047 13.5732C32.5944 13.3506 32.4181 13.0939 32.2759 12.8032C32.1336 12.5063 32.0192 12.1971 31.9326 11.8755C31.846 11.5477 31.7842 11.2199 31.7471 10.8921C31.71 10.5643 31.6914 10.252 31.6914 9.95508C31.6914 9.41081 31.7378 8.81706 31.8306 8.17383C31.9295 7.5306 32.0718 6.88737 32.2573 6.24414C32.4491 5.59473 32.6872 4.97005 32.9717 4.37012C33.2624 3.764 33.5964 3.229 33.9736 2.76514C34.3571 2.30127 34.7869 1.93018 35.2632 1.65186C35.7394 1.37354 36.2651 1.23438 36.8403 1.23438C37.2424 1.23438 37.5392 1.35189 37.731 1.58691C37.9227 1.81576 38.0186 2.12191 38.0186 2.50537ZM42.6016 9.13867C42.6016 9.20671 42.5768 9.26855 42.5273 9.32422C42.4779 9.3737 42.4191 9.39844 42.3511 9.39844C42.2954 9.39844 42.2367 9.38298 42.1748 9.35205C42.113 9.31494 42.0418 9.27474 41.9614 9.23145C41.8872 9.18815 41.7975 9.15104 41.6924 9.12012C41.5934 9.08301 41.479 9.06445 41.3491 9.06445C41.0461 9.06445 40.7739 9.16032 40.5327 9.35205C40.2977 9.5376 40.0967 9.76953 39.9297 10.0479C39.7689 10.3262 39.6452 10.623 39.5586 10.9385C39.472 11.2539 39.4287 11.5384 39.4287 11.792C39.4287 11.9714 39.4442 12.1476 39.4751 12.3208C39.506 12.4878 39.5586 12.6424 39.6328 12.7847C39.7132 12.9207 39.8215 13.0321 39.9575 13.1187C40.0936 13.1991 40.2668 13.2393 40.4771 13.2393C40.6997 13.2393 40.9131 13.1991 41.1172 13.1187C41.3213 13.0321 41.513 12.9207 41.6924 12.7847C41.6986 12.5868 41.7295 12.3796 41.7852 12.1631C41.847 11.9404 41.9243 11.724 42.0171 11.5137C42.1099 11.2972 42.215 11.0931 42.3325 10.9014C42.4562 10.7096 42.583 10.5396 42.7129 10.3911L42.8335 10.4653C42.7655 10.6756 42.716 10.8921 42.6851 11.1147C42.6541 11.3374 42.6387 11.557 42.6387 11.7734C42.6387 11.9961 42.6572 12.2064 42.6943 12.4043C42.7314 12.6022 42.7964 12.7754 42.8892 12.9238C42.9819 13.0661 43.1087 13.1805 43.2695 13.2671C43.4303 13.3475 43.6375 13.3877 43.8911 13.3877C44.2004 13.3877 44.4849 13.3166 44.7446 13.1743C45.0044 13.0321 45.2332 12.8527 45.4312 12.6362L45.5054 12.6733C45.394 12.8898 45.2487 13.097 45.0693 13.2949C44.89 13.4928 44.689 13.6722 44.4663 13.833C44.2498 13.9876 44.0179 14.1113 43.7705 14.2041C43.5231 14.2969 43.2788 14.3433 43.0376 14.3433C42.6974 14.3433 42.4191 14.2443 42.2026 14.0464C41.9862 13.8547 41.8377 13.6104 41.7573 13.3135C41.4976 13.5732 41.2069 13.7928 40.8853 13.9722C40.5698 14.1453 40.2358 14.2319 39.8833 14.2319C39.6235 14.2319 39.3916 14.1825 39.1875 14.0835C38.9896 13.9907 38.8226 13.8639 38.6865 13.7031C38.5505 13.5423 38.4453 13.3537 38.3711 13.1372C38.3031 12.9146 38.269 12.6826 38.269 12.4414C38.269 12.1631 38.3123 11.8786 38.3989 11.5879C38.4917 11.291 38.6154 11.0003 38.77 10.7158C38.9308 10.4313 39.1195 10.1623 39.3359 9.90869C39.5524 9.65511 39.7874 9.43245 40.041 9.24072C40.3008 9.04899 40.5729 8.89746 40.8574 8.78613C41.1419 8.6748 41.4326 8.61914 41.7295 8.61914C41.7975 8.61914 41.881 8.62842 41.98 8.64697C42.0789 8.65934 42.1748 8.68408 42.2676 8.72119C42.3604 8.7583 42.4377 8.81087 42.4995 8.87891C42.5675 8.94694 42.6016 9.03353 42.6016 9.13867ZM53.0757 12.6733C52.9582 12.896 52.8314 13.1094 52.6953 13.3135C52.5654 13.5176 52.417 13.6969 52.25 13.8516C52.083 14.0062 51.8944 14.1299 51.6841 14.2227C51.4738 14.3154 51.2326 14.3618 50.9604 14.3618C50.6512 14.3618 50.3853 14.2845 50.1626 14.1299C49.9399 13.9814 49.7482 13.7835 49.5874 13.5361C49.4328 13.2826 49.306 12.995 49.207 12.6733C49.1143 12.3517 49.0369 12.0239 48.9751 11.6899C48.9132 11.356 48.8669 11.0282 48.8359 10.7065C48.805 10.3787 48.7772 10.085 48.7524 9.8252C48.6349 9.91797 48.4927 10.0973 48.3257 10.3633C48.1587 10.623 47.9886 10.9292 47.8154 11.2817C47.6423 11.6343 47.4753 12.0177 47.3145 12.4321C47.1598 12.8465 47.033 13.2547 46.9341 13.6567C46.9155 13.7433 46.8846 13.833 46.8413 13.9258C46.8042 14.0186 46.7547 14.1021 46.6929 14.1763C46.6372 14.2567 46.5692 14.3216 46.4888 14.3711C46.4084 14.4268 46.3187 14.4546 46.2197 14.4546C46.0589 14.4546 45.9414 14.3989 45.8672 14.2876C45.7992 14.1763 45.7497 14.0495 45.7188 13.9072C45.5394 13.1217 45.4126 12.3703 45.3384 11.6528C45.2703 10.9354 45.2363 10.2179 45.2363 9.50049C45.2363 9.32731 45.2642 9.17887 45.3198 9.05518C45.3817 8.92529 45.4621 8.82015 45.561 8.73975C45.66 8.65316 45.7775 8.59131 45.9136 8.5542C46.0496 8.5109 46.1919 8.48926 46.3403 8.48926C46.3589 8.48926 46.3867 8.48926 46.4238 8.48926C46.4671 8.48926 46.5073 8.49544 46.5444 8.50781C46.5815 8.514 46.6125 8.52637 46.6372 8.54492C46.6619 8.56348 46.6712 8.58822 46.665 8.61914C46.5042 9.42936 46.4269 10.255 46.4331 11.0962C46.4393 11.9312 46.4826 12.7352 46.563 13.5083C46.631 13.1991 46.73 12.8496 46.8599 12.46C46.9959 12.0641 47.1506 11.6683 47.3237 11.2725C47.5031 10.8704 47.6948 10.4901 47.8989 10.1313C48.1092 9.76644 48.3226 9.46029 48.5391 9.21289C48.6442 9.09538 48.7493 8.99642 48.8545 8.91602C48.9658 8.82943 49.1019 8.78613 49.2627 8.78613C49.3555 8.78613 49.4328 8.80469 49.4946 8.8418C49.5565 8.87891 49.606 8.92529 49.6431 8.98096C49.6864 9.03662 49.7173 9.10156 49.7358 9.17578C49.7606 9.24382 49.7791 9.31185 49.7915 9.37988C49.8224 9.55924 49.8534 9.79118 49.8843 10.0757C49.9152 10.3602 49.9523 10.6632 49.9956 10.9849C50.0451 11.3065 50.1038 11.6312 50.1719 11.959C50.2399 12.2806 50.3265 12.5744 50.4316 12.8403C50.5368 13.1001 50.6636 13.3135 50.812 13.4805C50.9604 13.6475 51.1367 13.731 51.3408 13.731C51.5078 13.731 51.6686 13.7 51.8232 13.6382C51.984 13.5701 52.1356 13.4867 52.2778 13.3877C52.4201 13.2826 52.5531 13.165 52.6768 13.0352C52.8005 12.8991 52.9118 12.7661 53.0107 12.6362L53.0757 12.6733ZM57.8164 12.0054C57.8164 12.327 57.7576 12.63 57.6401 12.9146C57.5226 13.1991 57.3587 13.4465 57.1484 13.6567C56.9382 13.867 56.6908 14.034 56.4062 14.1577C56.1279 14.2814 55.8249 14.3433 55.4971 14.3433C55.2806 14.3433 55.0672 14.3092 54.8569 14.2412C54.6466 14.1732 54.4518 14.0773 54.2725 13.9536C54.0993 13.8237 53.9478 13.6691 53.8179 13.4897C53.688 13.3104 53.5952 13.1125 53.5396 12.896L53.7529 12.8403C53.9137 13.0382 54.0993 13.2021 54.3096 13.332C54.526 13.4619 54.7703 13.5269 55.0425 13.5269C55.2713 13.5269 55.4816 13.4774 55.6733 13.3784C55.8713 13.2795 56.0382 13.1496 56.1743 12.9888C56.3166 12.828 56.4248 12.6424 56.499 12.4321C56.5794 12.2157 56.6196 11.9961 56.6196 11.7734C56.6196 11.5075 56.5825 11.2879 56.5083 11.1147C56.4341 10.9354 56.3351 10.7869 56.2114 10.6694C56.0939 10.5457 55.9609 10.4406 55.8125 10.354C55.6641 10.2612 55.5125 10.1685 55.3579 10.0757C55.2095 9.98291 55.0641 9.87777 54.9219 9.76025C54.7858 9.64274 54.6683 9.49121 54.5693 9.30566C54.5632 9.67057 54.5013 10.054 54.3838 10.4561C54.2663 10.8581 54.1055 11.2477 53.9014 11.625C53.7035 12.0023 53.4746 12.3548 53.2148 12.6826C52.9551 13.0104 52.6799 13.2856 52.3892 13.5083L52.3149 13.3784C52.5129 13.1681 52.686 12.9053 52.8345 12.5898C52.9829 12.2744 53.1035 11.9435 53.1963 11.5972C53.2952 11.2446 53.3664 10.8921 53.4097 10.5396C53.4591 10.187 53.4839 9.8654 53.4839 9.57471C53.4839 9.42008 53.4684 9.26855 53.4375 9.12012C53.4066 8.97168 53.3911 8.82633 53.3911 8.68408C53.3911 8.5109 53.4406 8.37793 53.5396 8.28516C53.6447 8.19238 53.7777 8.146 53.9385 8.146C54.0622 8.146 54.1611 8.17383 54.2354 8.22949C54.3096 8.28516 54.3776 8.35938 54.4395 8.45215C54.5013 8.53874 54.5632 8.64079 54.625 8.7583C54.6868 8.86963 54.7642 8.98714 54.8569 9.11084C54.9559 9.22835 55.0765 9.34587 55.2188 9.46338C55.3672 9.57471 55.5558 9.67367 55.7847 9.76025C56.0506 9.85921 56.3042 9.97363 56.5454 10.1035C56.7928 10.2272 57.0093 10.3757 57.1948 10.5488C57.3866 10.722 57.5381 10.9292 57.6494 11.1704C57.7607 11.4054 57.8164 11.6838 57.8164 12.0054ZM65.7949 12.6733C65.6836 12.9207 65.5413 13.1434 65.3682 13.3413C65.2012 13.5392 65.0187 13.7093 64.8208 13.8516C64.6229 13.9876 64.4188 14.0928 64.2085 14.167C63.9982 14.2474 63.7972 14.2876 63.6055 14.2876C63.2467 14.2876 62.9437 14.2257 62.6963 14.1021C62.4489 13.9784 62.2479 13.8114 62.0933 13.6011C61.9386 13.3908 61.8273 13.1434 61.7593 12.8589C61.6912 12.5744 61.6572 12.2713 61.6572 11.9497C61.6572 11.7023 61.6758 11.4456 61.7129 11.1797C61.75 10.9137 61.8026 10.6571 61.8706 10.4097C61.883 10.3726 61.8953 10.3293 61.9077 10.2798C61.9201 10.2241 61.9263 10.1777 61.9263 10.1406C61.9263 10.1097 61.9077 10.085 61.8706 10.0664C61.7655 10.0293 61.6541 9.99528 61.5366 9.96436C61.4191 9.92725 61.3016 9.88704 61.1841 9.84375C61.0728 9.80046 60.9645 9.75098 60.8594 9.69531C60.7604 9.63965 60.6738 9.56852 60.5996 9.48193C60.5934 9.85303 60.5316 10.2303 60.4141 10.6138C60.2965 10.991 60.1388 11.356 59.9409 11.7085C59.7492 12.0549 59.5234 12.3796 59.2637 12.6826C59.0039 12.9857 58.7287 13.2485 58.438 13.4712L58.3452 13.3784C58.5246 13.1805 58.6885 12.9455 58.8369 12.6733C58.9854 12.4012 59.1121 12.1167 59.2173 11.8198C59.3224 11.5229 59.4028 11.223 59.4585 10.9199C59.5203 10.6169 59.5513 10.3324 59.5513 10.0664C59.5513 9.93034 59.5389 9.80355 59.5142 9.68604C59.4894 9.56234 59.4616 9.44482 59.4307 9.3335C59.4059 9.22217 59.3812 9.11702 59.3564 9.01807C59.3317 8.91292 59.3193 8.80778 59.3193 8.70264C59.3193 8.52946 59.375 8.39339 59.4863 8.29443C59.5977 8.19548 59.7399 8.146 59.9131 8.146C60.0059 8.146 60.077 8.17383 60.1265 8.22949C60.1759 8.27897 60.2192 8.34082 60.2563 8.41504C60.2935 8.48926 60.3368 8.56657 60.3862 8.64697C60.4357 8.72738 60.5068 8.79541 60.5996 8.85107C60.7171 8.91911 60.8656 8.96859 61.0449 8.99951C61.2243 9.03044 61.4129 9.05827 61.6108 9.08301C61.8088 9.10775 62.0067 9.13249 62.2046 9.15723C62.4025 9.18197 62.5788 9.22526 62.7334 9.28711C62.8942 9.34277 63.0241 9.42318 63.123 9.52832C63.222 9.62728 63.2715 9.76335 63.2715 9.93652C63.2715 10.0231 63.2622 10.1097 63.2437 10.1963C63.2313 10.2767 63.2096 10.354 63.1787 10.4282C63.1045 10.688 63.0396 10.9539 62.9839 11.2261C62.9344 11.492 62.9097 11.758 62.9097 12.0239C62.9097 12.2528 62.9251 12.4631 62.9561 12.6548C62.9932 12.8403 63.0581 13.0011 63.1509 13.1372C63.2437 13.2733 63.3674 13.3784 63.522 13.4526C63.6766 13.5269 63.8745 13.564 64.1157 13.564C64.4621 13.564 64.7651 13.4805 65.0249 13.3135C65.2847 13.1403 65.5135 12.9146 65.7114 12.6362L65.7949 12.6733ZM67.502 6.51318C67.502 6.63688 67.4741 6.76058 67.4185 6.88428C67.3628 7.00798 67.2886 7.1193 67.1958 7.21826C67.1092 7.31104 67.0072 7.38835 66.8896 7.4502C66.7721 7.51204 66.6515 7.54297 66.5278 7.54297C66.367 7.54297 66.2371 7.4904 66.1382 7.38525C66.0454 7.28011 65.999 7.14714 65.999 6.98633C65.999 6.86263 66.0269 6.74202 66.0825 6.62451C66.1382 6.50081 66.2093 6.39258 66.2959 6.2998C66.3887 6.20703 66.4907 6.13281 66.6021 6.07715C66.7196 6.0153 66.8402 5.98438 66.9639 5.98438C67.1247 5.98438 67.2546 6.03385 67.3535 6.13281C67.4525 6.23177 67.502 6.35856 67.502 6.51318ZM70.0996 12.6733C69.9574 12.9084 69.7873 13.1248 69.5894 13.3228C69.3976 13.5145 69.1842 13.6846 68.9492 13.833C68.7204 13.9753 68.473 14.0866 68.207 14.167C67.9473 14.2474 67.6782 14.2876 67.3999 14.2876C67.0535 14.2876 66.7443 14.2288 66.4722 14.1113C66.2062 13.9938 65.9805 13.833 65.7949 13.6289C65.6156 13.4186 65.4764 13.1743 65.3774 12.896C65.2847 12.6115 65.2383 12.3022 65.2383 11.9683C65.2383 11.6095 65.2909 11.2694 65.396 10.9478C65.5011 10.6261 65.6465 10.3262 65.832 10.0479C66.0176 9.76335 66.234 9.50358 66.4814 9.26855C66.735 9.03353 67.0041 8.82324 67.2886 8.6377L67.3999 8.72119C67.0968 9.07992 66.8494 9.48193 66.6577 9.92725C66.4722 10.3726 66.3794 10.8364 66.3794 11.3188C66.3794 11.5972 66.4103 11.8662 66.4722 12.126C66.5402 12.3796 66.6423 12.6053 66.7783 12.8032C66.9206 13.0011 67.0999 13.1589 67.3164 13.2764C67.5329 13.3939 67.7957 13.4526 68.105 13.4526C68.4699 13.4526 68.8162 13.3753 69.144 13.2207C69.478 13.0661 69.778 12.8713 70.0439 12.6362L70.0996 12.6733ZM84.9155 11.6064C84.8289 11.6064 84.7424 11.6034 84.6558 11.5972C84.5754 11.591 84.4919 11.5879 84.4053 11.5879C84.1702 11.5879 83.895 11.6003 83.5796 11.625C83.2642 11.6497 82.924 11.6838 82.5591 11.7271C82.7013 12.228 82.7725 12.7259 82.7725 13.2207C82.7725 13.7712 82.6797 14.2876 82.4941 14.77C82.3086 15.2524 82.0488 15.673 81.7148 16.0317C81.3809 16.3966 80.9788 16.6842 80.5088 16.8945C80.0449 17.1048 79.5316 17.21 78.9688 17.21C78.4059 17.21 77.8957 17.1234 77.438 16.9502C76.9865 16.777 76.5845 16.5389 76.2319 16.2358C75.8794 15.9328 75.5763 15.5771 75.3228 15.1689C75.0692 14.7607 74.862 14.3247 74.7012 13.8608C74.5404 13.397 74.4198 12.9146 74.3394 12.4136C74.2651 11.9126 74.228 11.4178 74.228 10.9292C74.228 10.255 74.2992 9.54688 74.4414 8.80469C74.5898 8.0625 74.8032 7.33268 75.0815 6.61523C75.3599 5.8916 75.7031 5.20508 76.1113 4.55566C76.5195 3.90007 76.9865 3.32487 77.5122 2.83008C78.0441 2.3291 78.6317 1.93327 79.2749 1.64258C79.9243 1.3457 80.6263 1.19727 81.3809 1.19727C81.8014 1.19727 82.1942 1.24674 82.5591 1.3457C82.924 1.44466 83.2425 1.59928 83.5146 1.80957C83.7868 2.01367 84.0002 2.27653 84.1548 2.59814C84.3094 2.91976 84.3867 3.30632 84.3867 3.75781C84.3867 4.09798 84.328 4.42578 84.2104 4.74121C84.0991 5.05046 83.9414 5.34115 83.7373 5.61328C83.5394 5.87923 83.3044 6.12044 83.0322 6.33691C82.7663 6.55339 82.4787 6.73893 82.1694 6.89355C81.8664 7.04199 81.5509 7.15641 81.2231 7.23682C80.9015 7.31722 80.583 7.35433 80.2676 7.34814H80.1284V7.1626C80.5304 7.08219 80.9108 6.93685 81.2695 6.72656C81.6344 6.51009 81.9499 6.25033 82.2158 5.94727C82.488 5.63802 82.7013 5.29167 82.856 4.9082C83.0168 4.52474 83.0972 4.12272 83.0972 3.70215C83.0972 3.07747 82.9364 2.57959 82.6147 2.2085C82.2993 1.8374 81.82 1.65186 81.1768 1.65186C80.5088 1.65186 79.9089 1.79411 79.377 2.07861C78.8451 2.36312 78.3719 2.7404 77.9575 3.21045C77.5493 3.6805 77.1968 4.22168 76.8999 4.83398C76.603 5.44629 76.3587 6.08024 76.167 6.73584C75.9814 7.39144 75.8423 8.04704 75.7495 8.70264C75.6629 9.35205 75.6196 9.95199 75.6196 10.5024C75.6196 10.923 75.6475 11.359 75.7031 11.8105C75.7588 12.2559 75.8454 12.6919 75.9629 13.1187C76.0866 13.5454 76.2474 13.9474 76.4453 14.3247C76.6432 14.7082 76.8844 15.0422 77.1689 15.3267C77.4596 15.6174 77.7936 15.8462 78.1709 16.0132C78.5544 16.1802 78.9935 16.2637 79.4883 16.2637C79.8656 16.2637 80.2243 16.1956 80.5645 16.0596C80.9046 15.9297 81.2015 15.7441 81.4551 15.5029C81.7148 15.2679 81.9189 14.9865 82.0674 14.6587C82.222 14.3309 82.2993 13.9722 82.2993 13.5825C82.2993 13.2671 82.2467 12.9609 82.1416 12.6641C82.0365 12.3672 81.8911 12.0951 81.7056 11.8477C81.3778 11.8971 81.0531 11.9528 80.7314 12.0146C80.4098 12.0765 80.1006 12.1445 79.8037 12.2188C79.513 12.2868 79.2409 12.361 78.9873 12.4414C78.7399 12.5156 78.5265 12.5929 78.3472 12.6733C78.2915 12.7104 78.2327 12.729 78.1709 12.729C78.0843 12.729 78.0286 12.6919 78.0039 12.6177C77.9792 12.5435 77.9668 12.4723 77.9668 12.4043C77.9668 12.293 77.9854 12.1693 78.0225 12.0332C78.0658 11.891 78.1245 11.758 78.1987 11.6343C78.2729 11.5044 78.3595 11.39 78.4585 11.291C78.5575 11.1921 78.6657 11.1271 78.7832 11.0962C78.9502 11.0467 79.1234 11.0096 79.3027 10.9849C79.4883 10.9601 79.6738 10.9447 79.8594 10.9385C80.0449 10.9261 80.2305 10.9199 80.416 10.9199C80.6016 10.9199 80.7778 10.9199 80.9448 10.9199C81.2046 10.9199 81.5231 10.9292 81.9004 10.9478C82.2777 10.9601 82.6642 10.988 83.0601 11.0312C83.4559 11.0684 83.8301 11.124 84.1826 11.1982C84.5352 11.2663 84.8135 11.359 85.0176 11.4766L84.9155 11.6064ZM93.1353 12.6362C93.0301 12.8589 92.9002 13.0815 92.7456 13.3042C92.5972 13.5207 92.4302 13.7186 92.2446 13.8979C92.0591 14.0711 91.855 14.2134 91.6323 14.3247C91.4097 14.436 91.1715 14.4917 90.918 14.4917C90.6396 14.4917 90.3984 14.4175 90.1943 14.269C89.9902 14.1268 89.8171 13.9382 89.6748 13.7031C89.5326 13.4619 89.415 13.1867 89.3223 12.8774C89.2295 12.5682 89.1522 12.2497 89.0903 11.9219C89.0285 11.5941 88.9759 11.2663 88.9326 10.9385C88.8955 10.6107 88.8584 10.3107 88.8213 10.0386C88.6234 10.2983 88.444 10.5736 88.2832 10.8643C88.1224 11.1549 87.9678 11.458 87.8193 11.7734C87.6709 12.0827 87.5256 12.3981 87.3833 12.7197C87.241 13.0413 87.0895 13.3599 86.9287 13.6753C86.8916 13.7433 86.8545 13.8175 86.8174 13.8979C86.7803 13.9722 86.737 14.0402 86.6875 14.1021C86.638 14.1701 86.5793 14.2257 86.5112 14.269C86.4432 14.3123 86.3628 14.334 86.27 14.334C86.1834 14.334 86.1092 14.3185 86.0474 14.2876C85.9917 14.2567 85.9422 14.2165 85.8989 14.167C85.8618 14.1237 85.8309 14.0742 85.8062 14.0186C85.7876 13.9629 85.7721 13.9103 85.7598 13.8608C85.6855 13.5949 85.6175 13.2609 85.5557 12.8589C85.5 12.4569 85.4505 12.027 85.4072 11.5693C85.3639 11.1117 85.3299 10.6478 85.3052 10.1777C85.2866 9.7015 85.2773 9.26237 85.2773 8.86035C85.2773 8.28516 85.3145 7.6945 85.3887 7.08838C85.4629 6.47607 85.5773 5.87923 85.7319 5.29785C85.8927 4.71647 86.0938 4.16911 86.335 3.65576C86.5824 3.13623 86.873 2.68164 87.207 2.29199C87.541 1.90234 87.9214 1.5931 88.3481 1.36426C88.7811 1.13542 89.2635 1.021 89.7954 1.021C90.1479 1.021 90.4263 1.12614 90.6304 1.33643C90.8345 1.54053 90.9365 1.83431 90.9365 2.21777C90.9365 2.79297 90.8345 3.34652 90.6304 3.87842C90.4325 4.40413 90.1758 4.9082 89.8604 5.39062C89.5511 5.87305 89.2048 6.33073 88.8213 6.76367C88.444 7.19043 88.0791 7.58626 87.7266 7.95117L87.606 7.8584C87.7606 7.68522 87.9245 7.47184 88.0977 7.21826C88.277 6.9585 88.4502 6.68018 88.6172 6.3833C88.7904 6.08024 88.9543 5.76481 89.1089 5.43701C89.2635 5.10303 89.3996 4.77523 89.5171 4.45361C89.6346 4.132 89.7274 3.82275 89.7954 3.52588C89.8634 3.22282 89.8975 2.94759 89.8975 2.7002C89.8975 2.57031 89.8851 2.44661 89.8604 2.3291C89.8356 2.21159 89.7923 2.10954 89.7305 2.02295C89.6686 1.93018 89.5882 1.85905 89.4893 1.80957C89.3965 1.75391 89.2821 1.72607 89.146 1.72607C88.8739 1.72607 88.6172 1.83122 88.376 2.0415C88.141 2.25179 87.9245 2.5363 87.7266 2.89502C87.5286 3.24756 87.3524 3.65885 87.1978 4.12891C87.0493 4.59896 86.9194 5.09066 86.8081 5.604C86.703 6.11735 86.6226 6.63688 86.5669 7.1626C86.5112 7.68831 86.4834 8.18929 86.4834 8.66553C86.4834 8.98714 86.4834 9.31185 86.4834 9.63965C86.4834 9.96745 86.4896 10.3107 86.502 10.6694C86.5205 11.0282 86.5483 11.4085 86.5854 11.8105C86.6287 12.2126 86.6875 12.6486 86.7617 13.1187C87.0339 12.4136 87.3215 11.724 87.6245 11.0498C87.9276 10.3695 88.2554 9.74788 88.6079 9.18506C88.6574 9.10465 88.7069 9.02425 88.7563 8.94385C88.812 8.86344 88.8708 8.79232 88.9326 8.73047C88.9945 8.66243 89.0625 8.60677 89.1367 8.56348C89.2109 8.52018 89.2913 8.49854 89.3779 8.49854C89.4831 8.49854 89.5666 8.52946 89.6284 8.59131C89.6903 8.64697 89.7397 8.7181 89.7769 8.80469C89.814 8.89128 89.8387 8.98405 89.8511 9.08301C89.8696 9.18197 89.8851 9.27165 89.8975 9.35205C89.9222 9.53141 89.95 9.76335 89.981 10.0479C90.0119 10.3324 90.049 10.6385 90.0923 10.9663C90.1356 11.2879 90.1882 11.6126 90.25 11.9404C90.318 12.2682 90.4015 12.5651 90.5005 12.8311C90.6056 13.0908 90.7293 13.3042 90.8716 13.4712C91.0138 13.6382 91.1839 13.7217 91.3818 13.7217C91.5426 13.7217 91.7035 13.6877 91.8643 13.6196C92.0251 13.5516 92.1797 13.465 92.3281 13.3599C92.4766 13.2547 92.6126 13.1341 92.7363 12.998C92.8662 12.862 92.9744 12.729 93.061 12.5991L93.1353 12.6362ZM98.1265 11.2632C98.1265 11.6961 98.0553 12.0981 97.9131 12.4692C97.7708 12.8403 97.5698 13.1619 97.3101 13.4341C97.0503 13.7062 96.738 13.9196 96.373 14.0742C96.0143 14.2288 95.6154 14.3062 95.1763 14.3062C94.7866 14.3062 94.4341 14.2319 94.1187 14.0835C93.8094 13.9412 93.5435 13.7464 93.3208 13.499C93.0981 13.2516 92.9281 12.964 92.8105 12.6362C92.693 12.3022 92.6343 11.9466 92.6343 11.5693C92.6343 11.2539 92.6776 10.9539 92.7642 10.6694C92.8569 10.3849 92.9837 10.1221 93.1445 9.88086C93.3053 9.63346 93.4971 9.40771 93.7197 9.20361C93.9424 8.99333 94.1836 8.80469 94.4434 8.6377L94.5547 8.72119C94.2949 9.02425 94.0908 9.35824 93.9424 9.72314C93.7939 10.0881 93.7197 10.4746 93.7197 10.8828C93.7197 11.1797 93.763 11.4827 93.8496 11.792C93.9424 12.0951 94.0754 12.3734 94.2485 12.627C94.4217 12.8805 94.6382 13.0877 94.8979 13.2485C95.1577 13.4093 95.4546 13.4897 95.7886 13.4897C95.9989 13.4897 96.1968 13.4465 96.3823 13.3599C96.5679 13.2733 96.7287 13.1558 96.8647 13.0073C97.007 12.8589 97.1183 12.6919 97.1987 12.5063C97.2853 12.3146 97.3286 12.1167 97.3286 11.9126C97.3286 11.7147 97.2977 11.5229 97.2358 11.3374C97.1802 11.1457 97.0998 10.9694 96.9946 10.8086C96.8895 10.6416 96.7627 10.4932 96.6143 10.3633C96.4658 10.2272 96.305 10.1159 96.1318 10.0293C96.0329 9.97982 95.937 9.94271 95.8442 9.91797C95.7576 9.89323 95.6618 9.8654 95.5566 9.83447C95.5133 9.82829 95.467 9.81901 95.4175 9.80664C95.368 9.78809 95.3216 9.76953 95.2783 9.75098C95.235 9.72624 95.1979 9.69531 95.167 9.6582C95.1361 9.62109 95.1206 9.57471 95.1206 9.51904C95.1206 9.40771 95.1608 9.30566 95.2412 9.21289C95.3216 9.12012 95.4175 9.03971 95.5288 8.97168C95.6401 8.89746 95.7576 8.8418 95.8813 8.80469C96.005 8.76139 96.1133 8.73975 96.2061 8.73975C96.5215 8.73975 96.7998 8.82015 97.041 8.98096C97.2822 9.14176 97.4832 9.34587 97.644 9.59326C97.8049 9.84066 97.9255 10.1128 98.0059 10.4097C98.0863 10.7065 98.1265 10.991 98.1265 11.2632ZM104.11 12.0054C104.11 12.327 104.052 12.63 103.934 12.9146C103.817 13.1991 103.653 13.4465 103.442 13.6567C103.232 13.867 102.985 14.034 102.7 14.1577C102.422 14.2814 102.119 14.3433 101.791 14.3433C101.575 14.3433 101.361 14.3092 101.151 14.2412C100.941 14.1732 100.746 14.0773 100.566 13.9536C100.393 13.8237 100.242 13.6691 100.112 13.4897C99.9819 13.3104 99.8892 13.1125 99.8335 12.896L100.047 12.8403C100.208 13.0382 100.393 13.2021 100.604 13.332C100.82 13.4619 101.064 13.5269 101.336 13.5269C101.565 13.5269 101.776 13.4774 101.967 13.3784C102.165 13.2795 102.332 13.1496 102.468 12.9888C102.611 12.828 102.719 12.6424 102.793 12.4321C102.873 12.2157 102.914 11.9961 102.914 11.7734C102.914 11.5075 102.876 11.2879 102.802 11.1147C102.728 10.9354 102.629 10.7869 102.505 10.6694C102.388 10.5457 102.255 10.4406 102.106 10.354C101.958 10.2612 101.806 10.1685 101.652 10.0757C101.503 9.98291 101.358 9.87777 101.216 9.76025C101.08 9.64274 100.962 9.49121 100.863 9.30566C100.857 9.67057 100.795 10.054 100.678 10.4561C100.56 10.8581 100.399 11.2477 100.195 11.625C99.9974 12.0023 99.7686 12.3548 99.5088 12.6826C99.249 13.0104 98.9738 13.2856 98.6831 13.5083L98.6089 13.3784C98.8068 13.1681 98.98 12.9053 99.1284 12.5898C99.2769 12.2744 99.3975 11.9435 99.4902 11.5972C99.5892 11.2446 99.6603 10.8921 99.7036 10.5396C99.7531 10.187 99.7778 9.8654 99.7778 9.57471C99.7778 9.42008 99.7624 9.26855 99.7314 9.12012C99.7005 8.97168 99.6851 8.82633 99.6851 8.68408C99.6851 8.5109 99.7345 8.37793 99.8335 8.28516C99.9386 8.19238 100.072 8.146 100.232 8.146C100.356 8.146 100.455 8.17383 100.529 8.22949C100.604 8.28516 100.672 8.35938 100.733 8.45215C100.795 8.53874 100.857 8.64079 100.919 8.7583C100.981 8.86963 101.058 8.98714 101.151 9.11084C101.25 9.22835 101.37 9.34587 101.513 9.46338C101.661 9.57471 101.85 9.67367 102.079 9.76025C102.345 9.85921 102.598 9.97363 102.839 10.1035C103.087 10.2272 103.303 10.3757 103.489 10.5488C103.681 10.722 103.832 10.9292 103.943 11.1704C104.055 11.4054 104.11 11.6838 104.11 12.0054ZM112.97 12.6362C112.865 12.8589 112.735 13.0815 112.581 13.3042C112.432 13.5207 112.265 13.7186 112.08 13.8979C111.894 14.0711 111.69 14.2134 111.467 14.3247C111.245 14.436 111.007 14.4917 110.753 14.4917C110.475 14.4917 110.233 14.4175 110.029 14.269C109.825 14.1268 109.652 13.9382 109.51 13.7031C109.368 13.4619 109.25 13.1867 109.157 12.8774C109.064 12.5682 108.987 12.2497 108.925 11.9219C108.863 11.5941 108.811 11.2663 108.768 10.9385C108.73 10.6107 108.693 10.3107 108.656 10.0386C108.458 10.2983 108.279 10.5736 108.118 10.8643C107.957 11.1549 107.803 11.458 107.654 11.7734C107.506 12.0827 107.361 12.3981 107.218 12.7197C107.076 13.0413 106.924 13.3599 106.764 13.6753C106.727 13.7433 106.689 13.8175 106.652 13.8979C106.615 13.9722 106.572 14.0402 106.522 14.1021C106.473 14.1701 106.414 14.2257 106.346 14.269C106.278 14.3123 106.198 14.334 106.105 14.334C106.018 14.334 105.944 14.3185 105.882 14.2876C105.827 14.2567 105.777 14.2165 105.734 14.167C105.697 14.1237 105.666 14.0742 105.641 14.0186C105.623 13.9629 105.607 13.9103 105.595 13.8608C105.521 13.5949 105.452 13.2609 105.391 12.8589C105.335 12.4569 105.285 12.027 105.242 11.5693C105.199 11.1117 105.165 10.6478 105.14 10.1777C105.122 9.7015 105.112 9.26237 105.112 8.86035C105.112 8.28516 105.149 7.6945 105.224 7.08838C105.298 6.47607 105.412 5.87923 105.567 5.29785C105.728 4.71647 105.929 4.16911 106.17 3.65576C106.417 3.13623 106.708 2.68164 107.042 2.29199C107.376 1.90234 107.756 1.5931 108.183 1.36426C108.616 1.13542 109.098 1.021 109.63 1.021C109.983 1.021 110.261 1.12614 110.465 1.33643C110.669 1.54053 110.771 1.83431 110.771 2.21777C110.771 2.79297 110.669 3.34652 110.465 3.87842C110.267 4.40413 110.011 4.9082 109.695 5.39062C109.386 5.87305 109.04 6.33073 108.656 6.76367C108.279 7.19043 107.914 7.58626 107.562 7.95117L107.441 7.8584C107.596 7.68522 107.759 7.47184 107.933 7.21826C108.112 6.9585 108.285 6.68018 108.452 6.3833C108.625 6.08024 108.789 5.76481 108.944 5.43701C109.098 5.10303 109.235 4.77523 109.352 4.45361C109.47 4.132 109.562 3.82275 109.63 3.52588C109.698 3.22282 109.732 2.94759 109.732 2.7002C109.732 2.57031 109.72 2.44661 109.695 2.3291C109.671 2.21159 109.627 2.10954 109.565 2.02295C109.504 1.93018 109.423 1.85905 109.324 1.80957C109.231 1.75391 109.117 1.72607 108.981 1.72607C108.709 1.72607 108.452 1.83122 108.211 2.0415C107.976 2.25179 107.759 2.5363 107.562 2.89502C107.364 3.24756 107.187 3.65885 107.033 4.12891C106.884 4.59896 106.754 5.09066 106.643 5.604C106.538 6.11735 106.458 6.63688 106.402 7.1626C106.346 7.68831 106.318 8.18929 106.318 8.66553C106.318 8.98714 106.318 9.31185 106.318 9.63965C106.318 9.96745 106.325 10.3107 106.337 10.6694C106.355 11.0282 106.383 11.4085 106.42 11.8105C106.464 12.2126 106.522 12.6486 106.597 13.1187C106.869 12.4136 107.156 11.724 107.459 11.0498C107.763 10.3695 108.09 9.74788 108.443 9.18506C108.492 9.10465 108.542 9.02425 108.591 8.94385C108.647 8.86344 108.706 8.79232 108.768 8.73047C108.829 8.66243 108.897 8.60677 108.972 8.56348C109.046 8.52018 109.126 8.49854 109.213 8.49854C109.318 8.49854 109.402 8.52946 109.463 8.59131C109.525 8.64697 109.575 8.7181 109.612 8.80469C109.649 8.89128 109.674 8.98405 109.686 9.08301C109.705 9.18197 109.72 9.27165 109.732 9.35205C109.757 9.53141 109.785 9.76335 109.816 10.0479C109.847 10.3324 109.884 10.6385 109.927 10.9663C109.971 11.2879 110.023 11.6126 110.085 11.9404C110.153 12.2682 110.236 12.5651 110.335 12.8311C110.441 13.0908 110.564 13.3042 110.707 13.4712C110.849 13.6382 111.019 13.7217 111.217 13.7217C111.378 13.7217 111.538 13.6877 111.699 13.6196C111.86 13.5516 112.015 13.465 112.163 13.3599C112.312 13.2547 112.448 13.1341 112.571 12.998C112.701 12.862 112.809 12.729 112.896 12.5991L112.97 12.6362Z" fill="black"/>
<path d="M1.53452 25V20.492H2.5778V25H1.53452ZM5.68269 21.4838C5.95746 21.4838 6.20218 21.5396 6.41685 21.6512C6.63581 21.7585 6.80754 21.926 6.93205 22.1535C7.05655 22.3768 7.11881 22.6644 7.11881 23.0165V25H6.11417V23.171C6.11417 22.892 6.05191 22.6859 5.92741 22.5528C5.80719 22.4197 5.63546 22.3532 5.41221 22.3532C5.25335 22.3532 5.10953 22.3875 4.98073 22.4562C4.85622 22.5206 4.75747 22.6215 4.68449 22.7589C4.61579 22.8963 4.58145 23.0723 4.58145 23.287V25H3.57681V21.5353H4.53637V22.4948L4.35605 22.205C4.48055 21.9732 4.65873 21.795 4.89057 21.6705C5.12241 21.546 5.38645 21.4838 5.68269 21.4838ZM9.1951 25.0515C8.89886 25.0515 8.61336 25.0172 8.33858 24.9485C8.0681 24.8755 7.85343 24.7853 7.69458 24.678L8.02946 23.9567C8.18831 24.0555 8.37507 24.137 8.58974 24.2014C8.8087 24.2615 9.02337 24.2916 9.23374 24.2916C9.46558 24.2916 9.62873 24.2637 9.72318 24.2079C9.82193 24.1521 9.8713 24.0748 9.8713 23.976C9.8713 23.8945 9.83266 23.8344 9.75538 23.7957C9.6824 23.7528 9.58365 23.7206 9.45914 23.6991C9.33464 23.6777 9.19725 23.6562 9.04698 23.6347C8.90101 23.6133 8.75289 23.5853 8.60262 23.551C8.45235 23.5124 8.31497 23.4565 8.19046 23.3836C8.06595 23.3106 7.96506 23.2118 7.88778 23.0873C7.81479 22.9628 7.7783 22.8018 7.7783 22.6043C7.7783 22.3854 7.84055 22.1922 7.96506 22.0247C8.09386 21.8573 8.27847 21.7263 8.5189 21.6319C8.75933 21.5331 9.04698 21.4838 9.38186 21.4838C9.618 21.4838 9.85842 21.5095 10.1031 21.561C10.3479 21.6126 10.5518 21.6877 10.7149 21.7864L10.3801 22.5013C10.2126 22.4025 10.043 22.336 9.8713 22.3016C9.70386 22.263 9.54071 22.2437 9.38186 22.2437C9.15861 22.2437 8.99546 22.2737 8.89242 22.3338C8.78938 22.3939 8.73786 22.4712 8.73786 22.5657C8.73786 22.6515 8.77436 22.7159 8.84734 22.7589C8.92462 22.8018 9.02551 22.8362 9.15002 22.8619C9.27453 22.8877 9.40977 22.9113 9.55574 22.9328C9.70601 22.9499 9.85628 22.9778 10.0065 23.0165C10.1568 23.0551 10.292 23.1109 10.4123 23.1839C10.5368 23.2526 10.6377 23.3492 10.7149 23.4737C10.7922 23.5939 10.8309 23.7528 10.8309 23.9503C10.8309 24.1649 10.7665 24.356 10.6377 24.5234C10.5089 24.6866 10.3221 24.8154 10.0774 24.9098C9.83696 25.0043 9.54286 25.0515 9.1951 25.0515ZM13.4986 25.0515C13.2067 25.0515 12.9512 24.9871 12.7323 24.8583C12.5133 24.7295 12.3416 24.5342 12.2171 24.2723C12.0969 24.0061 12.0368 23.6712 12.0368 23.2676C12.0368 22.8598 12.0947 22.5249 12.2106 22.263C12.3266 22.0011 12.494 21.8058 12.713 21.677C12.9319 21.5482 13.1938 21.4838 13.4986 21.4838C13.8249 21.4838 14.1169 21.5589 14.3745 21.7092C14.6364 21.8551 14.8424 22.0612 14.9927 22.3274C15.1473 22.5936 15.2246 22.907 15.2246 23.2676C15.2246 23.6326 15.1473 23.9481 14.9927 24.2143C14.8424 24.4805 14.6364 24.6866 14.3745 24.8326C14.1169 24.9785 13.8249 25.0515 13.4986 25.0515ZM11.4507 26.2494V21.5353H12.4103V22.2437L12.391 23.2741L12.4554 24.298V26.2494H11.4507ZM13.3248 24.2272C13.4922 24.2272 13.6403 24.1886 13.7691 24.1113C13.9022 24.034 14.0074 23.9245 14.0847 23.7828C14.1662 23.6369 14.207 23.4651 14.207 23.2676C14.207 23.0659 14.1662 22.8941 14.0847 22.7524C14.0074 22.6108 13.9022 22.5013 13.7691 22.424C13.6403 22.3467 13.4922 22.3081 13.3248 22.3081C13.1573 22.3081 13.007 22.3467 12.874 22.424C12.7409 22.5013 12.6357 22.6108 12.5584 22.7524C12.4811 22.8941 12.4425 23.0659 12.4425 23.2676C12.4425 23.4651 12.4811 23.6369 12.5584 23.7828C12.6357 23.9245 12.7409 24.034 12.874 24.1113C13.007 24.1886 13.1573 24.2272 13.3248 24.2272ZM15.8971 25V21.5353H16.9017V25H15.8971ZM16.3994 21.0523C16.2148 21.0523 16.0645 20.9986 15.9486 20.8913C15.8327 20.7839 15.7747 20.6509 15.7747 20.492C15.7747 20.3331 15.8327 20.2001 15.9486 20.0927C16.0645 19.9854 16.2148 19.9317 16.3994 19.9317C16.584 19.9317 16.7343 19.9832 16.8502 20.0863C16.9661 20.185 17.0241 20.3138 17.0241 20.4727C17.0241 20.6401 16.9661 20.7797 16.8502 20.8913C16.7386 20.9986 16.5883 21.0523 16.3994 21.0523ZM17.8341 25V21.5353H18.7937V22.5142L18.6584 22.2308C18.7615 21.9861 18.9268 21.8015 19.1543 21.677C19.3819 21.5482 19.6588 21.4838 19.9851 21.4838V22.4111C19.9421 22.4068 19.9035 22.4047 19.8692 22.4047C19.8348 22.4004 19.7983 22.3982 19.7597 22.3982C19.4849 22.3982 19.2616 22.4777 19.0899 22.6365C18.9225 22.7911 18.8388 23.0337 18.8388 23.3642V25H17.8341ZM22.4812 25V24.3238L22.4168 24.1757V22.965C22.4168 22.7503 22.3503 22.5829 22.2172 22.4626C22.0884 22.3424 21.8887 22.2823 21.6183 22.2823C21.4337 22.2823 21.2512 22.3124 21.0709 22.3725C20.8948 22.4283 20.7446 22.5056 20.6201 22.6043L20.2594 21.9024C20.4483 21.7693 20.6759 21.6662 20.9421 21.5932C21.2083 21.5203 21.4787 21.4838 21.7535 21.4838C22.2816 21.4838 22.6916 21.6083 22.9835 21.8573C23.2755 22.1063 23.4215 22.4948 23.4215 23.0229V25H22.4812ZM21.4251 25.0515C21.1546 25.0515 20.9227 25.0064 20.7295 24.9163C20.5363 24.8218 20.3882 24.6952 20.2852 24.5363C20.1821 24.3775 20.1306 24.1993 20.1306 24.0018C20.1306 23.7957 20.18 23.6154 20.2787 23.4608C20.3818 23.3063 20.5428 23.1861 20.7617 23.1002C20.9807 23.01 21.2662 22.965 21.6183 22.965H22.5392V23.551H21.7277C21.4916 23.551 21.3285 23.5896 21.2383 23.6669C21.1524 23.7442 21.1095 23.8408 21.1095 23.9567C21.1095 24.0855 21.1589 24.1886 21.2576 24.2658C21.3607 24.3388 21.5002 24.3753 21.6762 24.3753C21.8437 24.3753 21.9939 24.3367 22.127 24.2594C22.2601 24.1778 22.3567 24.0598 22.4168 23.9052L22.5714 24.3689C22.4984 24.5921 22.3653 24.7617 22.1721 24.8776C21.9789 24.9936 21.7299 25.0515 21.4251 25.0515ZM25.7475 25.0515C25.3396 25.0515 25.0219 24.9485 24.7944 24.7424C24.5668 24.532 24.4531 24.2208 24.4531 23.8086V20.7689H25.4577V23.7957C25.4577 23.9417 25.4964 24.0555 25.5736 24.137C25.6509 24.2143 25.7561 24.253 25.8892 24.253C26.048 24.253 26.1833 24.21 26.2949 24.1242L26.5654 24.8326C26.4624 24.9055 26.3378 24.9614 26.1919 25C26.0502 25.0343 25.9021 25.0515 25.7475 25.0515ZM23.9186 22.3854V21.6126H26.3207V22.3854H23.9186ZM27.1293 25V21.5353H28.134V25H27.1293ZM27.6317 21.0523C27.4471 21.0523 27.2968 20.9986 27.1809 20.8913C27.0649 20.7839 27.007 20.6509 27.007 20.492C27.007 20.3331 27.0649 20.2001 27.1809 20.0927C27.2968 19.9854 27.4471 19.9317 27.6317 19.9317C27.8163 19.9317 27.9665 19.9832 28.0825 20.0863C28.1984 20.185 28.2563 20.3138 28.2563 20.4727C28.2563 20.6401 28.1984 20.7797 28.0825 20.8913C27.9708 20.9986 27.8206 21.0523 27.6317 21.0523ZM30.715 25.0515C30.3458 25.0515 30.0173 24.9742 29.7297 24.8197C29.4463 24.6651 29.2209 24.4547 29.0535 24.1886C28.8903 23.9181 28.8088 23.6111 28.8088 23.2676C28.8088 22.9199 28.8903 22.6129 29.0535 22.3467C29.2209 22.0762 29.4463 21.8659 29.7297 21.7156C30.0173 21.561 30.3458 21.4838 30.715 21.4838C31.0799 21.4838 31.4062 21.561 31.6939 21.7156C31.9815 21.8659 32.2069 22.0741 32.3701 22.3403C32.5332 22.6065 32.6148 22.9156 32.6148 23.2676C32.6148 23.6111 32.5332 23.9181 32.3701 24.1886C32.2069 24.4547 31.9815 24.6651 31.6939 24.8197C31.4062 24.9742 31.0799 25.0515 30.715 25.0515ZM30.715 24.2272C30.8825 24.2272 31.0327 24.1886 31.1658 24.1113C31.2989 24.034 31.4041 23.9245 31.4814 23.7828C31.5587 23.6369 31.5973 23.4651 31.5973 23.2676C31.5973 23.0659 31.5587 22.8941 31.4814 22.7524C31.4041 22.6108 31.2989 22.5013 31.1658 22.424C31.0327 22.3467 30.8825 22.3081 30.715 22.3081C30.5476 22.3081 30.3973 22.3467 30.2642 22.424C30.1311 22.5013 30.0238 22.6108 29.9422 22.7524C29.8649 22.8941 29.8263 23.0659 29.8263 23.2676C29.8263 23.4651 29.8649 23.6369 29.9422 23.7828C30.0238 23.9245 30.1311 24.034 30.2642 24.1113C30.3973 24.1886 30.5476 24.2272 30.715 24.2272ZM35.3922 21.4838C35.667 21.4838 35.9117 21.5396 36.1264 21.6512C36.3453 21.7585 36.5171 21.926 36.6416 22.1535C36.7661 22.3768 36.8283 22.6644 36.8283 23.0165V25H35.8237V23.171C35.8237 22.892 35.7614 22.6859 35.6369 22.5528C35.5167 22.4197 35.345 22.3532 35.1217 22.3532C34.9629 22.3532 34.8191 22.3875 34.6903 22.4562C34.5658 22.5206 34.467 22.6215 34.394 22.7589C34.3253 22.8963 34.291 23.0723 34.291 23.287V25H33.2863V21.5353H34.2459V22.4948L34.0656 22.205C34.1901 21.9732 34.3683 21.795 34.6001 21.6705C34.8319 21.546 35.096 21.4838 35.3922 21.4838ZM39.8642 25V24.3238L39.7998 24.1757V22.965C39.7998 22.7503 39.7332 22.5829 39.6002 22.4626C39.4714 22.3424 39.2717 22.2823 39.0012 22.2823C38.8166 22.2823 38.6342 22.3124 38.4538 22.3725C38.2778 22.4283 38.1275 22.5056 38.003 22.6043L37.6424 21.9024C37.8313 21.7693 38.0588 21.6662 38.325 21.5932C38.5912 21.5203 38.8617 21.4838 39.1365 21.4838C39.6646 21.4838 40.0746 21.6083 40.3665 21.8573C40.6585 22.1063 40.8044 22.4948 40.8044 23.0229V25H39.8642ZM38.808 25.0515C38.5376 25.0515 38.3057 25.0064 38.1125 24.9163C37.9193 24.8218 37.7712 24.6952 37.6682 24.5363C37.5651 24.3775 37.5136 24.1993 37.5136 24.0018C37.5136 23.7957 37.563 23.6154 37.6617 23.4608C37.7648 23.3063 37.9258 23.1861 38.1447 23.1002C38.3637 23.01 38.6492 22.965 39.0012 22.965H39.9222V23.551H39.1107C38.8746 23.551 38.7114 23.5896 38.6213 23.6669C38.5354 23.7442 38.4925 23.8408 38.4925 23.9567C38.4925 24.0855 38.5418 24.1886 38.6406 24.2658C38.7436 24.3388 38.8832 24.3753 39.0592 24.3753C39.2266 24.3753 39.3769 24.3367 39.51 24.2594C39.6431 24.1778 39.7397 24.0598 39.7998 23.9052L39.9544 24.3689C39.8814 24.5921 39.7483 24.7617 39.5551 24.8776C39.3619 24.9936 39.1129 25.0515 38.808 25.0515ZM41.7137 25V20.2215H42.7183V25H41.7137ZM47.0266 25.0773C46.6659 25.0773 46.3203 25.0301 45.9897 24.9356C45.6592 24.8369 45.393 24.7102 45.1912 24.5556L45.5454 23.77C45.7386 23.9073 45.9661 24.0211 46.228 24.1113C46.4942 24.1971 46.7625 24.2401 47.033 24.2401C47.2391 24.2401 47.4044 24.2208 47.5289 24.1821C47.6577 24.1392 47.7522 24.0812 47.8123 24.0082C47.8724 23.9353 47.9024 23.8515 47.9024 23.7571C47.9024 23.6369 47.8552 23.5424 47.7607 23.4737C47.6663 23.4007 47.5418 23.3428 47.3872 23.2998C47.2327 23.2526 47.0609 23.2097 46.872 23.171C46.6874 23.1281 46.5006 23.0766 46.3117 23.0165C46.1271 22.9564 45.9575 22.8791 45.803 22.7846C45.6484 22.6902 45.5218 22.5657 45.423 22.4111C45.3286 22.2566 45.2813 22.0591 45.2813 21.8186C45.2813 21.561 45.35 21.3271 45.4874 21.1167C45.6291 20.902 45.8395 20.7324 46.1185 20.6079C46.4019 20.4791 46.7561 20.4147 47.1811 20.4147C47.4645 20.4147 47.7436 20.4491 48.0183 20.5178C48.2931 20.5822 48.5357 20.6809 48.7461 20.814L48.4241 21.6061C48.2137 21.4859 48.0033 21.3979 47.7929 21.3421C47.5826 21.282 47.3765 21.2519 47.1747 21.2519C46.9729 21.2519 46.8076 21.2755 46.6788 21.3228C46.55 21.37 46.4577 21.4322 46.4019 21.5095C46.3461 21.5825 46.3182 21.6684 46.3182 21.7671C46.3182 21.883 46.3654 21.9775 46.4599 22.0505C46.5543 22.1192 46.6788 22.175 46.8334 22.2179C46.9879 22.2609 47.1575 22.3038 47.3421 22.3467C47.531 22.3897 47.7178 22.439 47.9024 22.4948C48.0913 22.5507 48.2631 22.6258 48.4176 22.7202C48.5722 22.8147 48.6967 22.9392 48.7911 23.0938C48.8899 23.2483 48.9393 23.4437 48.9393 23.6798C48.9393 23.9331 48.8684 24.1649 48.7267 24.3753C48.5851 24.5857 48.3725 24.7553 48.0892 24.8841C47.8101 25.0129 47.4559 25.0773 47.0266 25.0773ZM51.6292 25.0515C51.3373 25.0515 51.0818 24.9871 50.8629 24.8583C50.6439 24.7295 50.4722 24.5342 50.3477 24.2723C50.2274 24.0061 50.1673 23.6712 50.1673 23.2676C50.1673 22.8598 50.2253 22.5249 50.3412 22.263C50.4571 22.0011 50.6246 21.8058 50.8435 21.677C51.0625 21.5482 51.3244 21.4838 51.6292 21.4838C51.9555 21.4838 52.2475 21.5589 52.5051 21.7092C52.767 21.8551 52.973 22.0612 53.1233 22.3274C53.2779 22.5936 53.3551 22.907 53.3551 23.2676C53.3551 23.6326 53.2779 23.9481 53.1233 24.2143C52.973 24.4805 52.767 24.6866 52.5051 24.8326C52.2475 24.9785 51.9555 25.0515 51.6292 25.0515ZM49.5813 26.2494V21.5353H50.5409V22.2437L50.5215 23.2741L50.5859 24.298V26.2494H49.5813ZM51.4553 24.2272C51.6228 24.2272 51.7709 24.1886 51.8997 24.1113C52.0328 24.034 52.138 23.9245 52.2153 23.7828C52.2968 23.6369 52.3376 23.4651 52.3376 23.2676C52.3376 23.0659 52.2968 22.8941 52.2153 22.7524C52.138 22.6108 52.0328 22.5013 51.8997 22.424C51.7709 22.3467 51.6228 22.3081 51.4553 22.3081C51.2879 22.3081 51.1376 22.3467 51.0045 22.424C50.8714 22.5013 50.7663 22.6108 50.689 22.7524C50.6117 22.8941 50.5731 23.0659 50.5731 23.2676C50.5731 23.4651 50.6117 23.6369 50.689 23.7828C50.7663 23.9245 50.8714 24.034 51.0045 24.1113C51.1376 24.1886 51.2879 24.2272 51.4553 24.2272ZM55.7471 25.0515C55.3522 25.0515 55.0044 24.9742 54.7039 24.8197C54.4076 24.6651 54.1779 24.4547 54.0148 24.1886C53.8516 23.9181 53.7701 23.6111 53.7701 23.2676C53.7701 22.9199 53.8495 22.6129 54.0083 22.3467C54.1715 22.0762 54.3926 21.8659 54.6717 21.7156C54.9507 21.561 55.2663 21.4838 55.6183 21.4838C55.9575 21.4838 56.2623 21.5567 56.5328 21.7027C56.8076 21.8444 57.0244 22.0505 57.1833 22.321C57.3421 22.5871 57.4215 22.907 57.4215 23.2805C57.4215 23.3192 57.4194 23.3642 57.4151 23.4158C57.4108 23.463 57.4065 23.5081 57.4022 23.551H54.5879V22.965H56.8741L56.4877 23.1388C56.4877 22.9585 56.4513 22.8018 56.3783 22.6687C56.3053 22.5356 56.2044 22.4326 56.0756 22.3596C55.9468 22.2823 55.7965 22.2437 55.6248 22.2437C55.4531 22.2437 55.3006 22.2823 55.1675 22.3596C55.0387 22.4326 54.9379 22.5378 54.8649 22.6752C54.7919 22.8083 54.7554 22.9671 54.7554 23.1517V23.3063C54.7554 23.4952 54.7962 23.6626 54.8777 23.8086C54.9636 23.9503 55.0817 24.0598 55.2319 24.137C55.3865 24.21 55.5668 24.2465 55.7729 24.2465C55.9575 24.2465 56.1185 24.2186 56.2559 24.1628C56.3976 24.107 56.5264 24.0233 56.6423 23.9116L57.1768 24.4912C57.018 24.6716 56.8183 24.8111 56.5779 24.9098C56.3375 25.0043 56.0606 25.0515 55.7471 25.0515ZM60.1213 25V24.3238L60.0569 24.1757V22.965C60.0569 22.7503 59.9903 22.5829 59.8572 22.4626C59.7284 22.3424 59.5288 22.2823 59.2583 22.2823C59.0737 22.2823 58.8912 22.3124 58.7109 22.3725C58.5349 22.4283 58.3846 22.5056 58.2601 22.6043L57.8995 21.9024C58.0884 21.7693 58.3159 21.6662 58.5821 21.5932C58.8483 21.5203 59.1188 21.4838 59.3935 21.4838C59.9216 21.4838 60.3316 21.6083 60.6236 21.8573C60.9155 22.1063 61.0615 22.4948 61.0615 23.0229V25H60.1213ZM59.0651 25.0515C58.7946 25.0515 58.5628 25.0064 58.3696 24.9163C58.1764 24.8218 58.0283 24.6952 57.9252 24.5363C57.8222 24.3775 57.7707 24.1993 57.7707 24.0018C57.7707 23.7957 57.82 23.6154 57.9188 23.4608C58.0218 23.3063 58.1828 23.1861 58.4018 23.1002C58.6207 23.01 58.9062 22.965 59.2583 22.965H60.1792V23.551H59.3678C59.1316 23.551 58.9685 23.5896 58.8783 23.6669C58.7925 23.7442 58.7495 23.8408 58.7495 23.9567C58.7495 24.0855 58.7989 24.1886 58.8977 24.2658C59.0007 24.3388 59.1402 24.3753 59.3163 24.3753C59.4837 24.3753 59.634 24.3367 59.7671 24.2594C59.9002 24.1778 59.9968 24.0598 60.0569 23.9052L60.2114 24.3689C60.1384 24.5921 60.0053 24.7617 59.8121 24.8776C59.6189 24.9936 59.3699 25.0515 59.0651 25.0515ZM62.8015 24.2916L62.8273 23.068L64.4437 21.5353H65.6416L64.0895 23.1131L63.5679 23.5381L62.8015 24.2916ZM61.9708 25V20.2215H62.9754V25H61.9708ZM64.5532 25L63.3811 23.5446L64.0122 22.7653L65.7704 25H64.5532ZM67.797 25.0515C67.402 25.0515 67.0542 24.9742 66.7537 24.8197C66.4575 24.6651 66.2278 24.4547 66.0646 24.1886C65.9015 23.9181 65.8199 23.6111 65.8199 23.2676C65.8199 22.9199 65.8993 22.6129 66.0582 22.3467C66.2213 22.0762 66.4424 21.8659 66.7215 21.7156C67.0006 21.561 67.3161 21.4838 67.6682 21.4838C68.0074 21.4838 68.3122 21.5567 68.5827 21.7027C68.8574 21.8444 69.0743 22.0505 69.2331 22.321C69.392 22.5871 69.4714 22.907 69.4714 23.2805C69.4714 23.3192 69.4692 23.3642 69.465 23.4158C69.4607 23.463 69.4564 23.5081 69.4521 23.551H66.6378V22.965H68.924L68.5376 23.1388C68.5376 22.9585 68.5011 22.8018 68.4281 22.6687C68.3551 22.5356 68.2542 22.4326 68.1254 22.3596C67.9966 22.2823 67.8464 22.2437 67.6746 22.2437C67.5029 22.2437 67.3505 22.2823 67.2174 22.3596C67.0886 22.4326 66.9877 22.5378 66.9147 22.6752C66.8417 22.8083 66.8052 22.9671 66.8052 23.1517V23.3063C66.8052 23.4952 66.846 23.6626 66.9276 23.8086C67.0135 23.9503 67.1315 24.0598 67.2818 24.137C67.4364 24.21 67.6167 24.2465 67.8228 24.2465C68.0074 24.2465 68.1684 24.2186 68.3058 24.1628C68.4474 24.107 68.5762 24.0233 68.6922 23.9116L69.2267 24.4912C69.0678 24.6716 68.8682 24.8111 68.6278 24.9098C68.3873 25.0043 68.1104 25.0515 67.797 25.0515ZM70.1402 25V21.5353H71.0998V22.5142L70.9646 22.2308C71.0676 21.9861 71.2329 21.8015 71.4604 21.677C71.688 21.5482 71.9649 21.4838 72.2912 21.4838V22.4111C72.2483 22.4068 72.2096 22.4047 72.1753 22.4047C72.1409 22.4004 72.1044 22.3982 72.0658 22.3982C71.791 22.3982 71.5678 22.4777 71.396 22.6365C71.2286 22.7911 71.1449 23.0337 71.1449 23.3642V25H70.1402ZM76.8627 25V24.3238L76.7983 24.1757V22.965C76.7983 22.7503 76.7318 22.5829 76.5987 22.4626C76.4699 22.3424 76.2703 22.2823 75.9998 22.2823C75.8152 22.2823 75.6327 22.3124 75.4524 22.3725C75.2764 22.4283 75.1261 22.5056 75.0016 22.6043L74.6409 21.9024C74.8299 21.7693 75.0574 21.6662 75.3236 21.5932C75.5898 21.5203 75.8603 21.4838 76.135 21.4838C76.6631 21.4838 77.0731 21.6083 77.3651 21.8573C77.657 22.1063 77.803 22.4948 77.803 23.0229V25H76.8627ZM75.8066 25.0515C75.5361 25.0515 75.3043 25.0064 75.1111 24.9163C74.9179 24.8218 74.7697 24.6952 74.6667 24.5363C74.5637 24.3775 74.5121 24.1993 74.5121 24.0018C74.5121 23.7957 74.5615 23.6154 74.6603 23.4608C74.7633 23.3063 74.9243 23.1861 75.1433 23.1002C75.3622 23.01 75.6477 22.965 75.9998 22.965H76.9207V23.551H76.1093C75.8731 23.551 75.71 23.5896 75.6198 23.6669C75.534 23.7442 75.491 23.8408 75.491 23.9567C75.491 24.0855 75.5404 24.1886 75.6391 24.2658C75.7422 24.3388 75.8817 24.3753 76.0577 24.3753C76.2252 24.3753 76.3755 24.3367 76.5085 24.2594C76.6416 24.1778 76.7382 24.0598 76.7983 23.9052L76.9529 24.3689C76.8799 24.5921 76.7468 24.7617 76.5536 24.8776C76.3604 24.9936 76.1114 25.0515 75.8066 25.0515ZM80.8181 21.4838C81.0929 21.4838 81.3376 21.5396 81.5523 21.6512C81.7712 21.7585 81.943 21.926 82.0675 22.1535C82.192 22.3768 82.2542 22.6644 82.2542 23.0165V25H81.2496V23.171C81.2496 22.892 81.1873 22.6859 81.0628 22.5528C80.9426 22.4197 80.7709 22.3532 80.5476 22.3532C80.3888 22.3532 80.245 22.3875 80.1162 22.4562C79.9917 22.5206 79.8929 22.6215 79.8199 22.7589C79.7512 22.8963 79.7169 23.0723 79.7169 23.287V25H78.7122V21.5353H79.6718V22.4948L79.4915 22.205C79.616 21.9732 79.7942 21.795 80.026 21.6705C80.2578 21.546 80.5219 21.4838 80.8181 21.4838ZM84.6777 25.0515C84.3514 25.0515 84.0573 24.9785 83.7954 24.8326C83.5335 24.6823 83.3253 24.4741 83.1707 24.2079C83.0205 23.9417 82.9453 23.6283 82.9453 23.2676C82.9453 22.9027 83.0205 22.5871 83.1707 22.321C83.3253 22.0548 83.5335 21.8487 83.7954 21.7027C84.0573 21.5567 84.3514 21.4838 84.6777 21.4838C84.9696 21.4838 85.2251 21.5482 85.4441 21.677C85.663 21.8058 85.8326 22.0011 85.9528 22.263C86.073 22.5249 86.1331 22.8598 86.1331 23.2676C86.1331 23.6712 86.0752 24.0061 85.9593 24.2723C85.8433 24.5342 85.6759 24.7295 85.4569 24.8583C85.2423 24.9871 84.9825 25.0515 84.6777 25.0515ZM84.8516 24.2272C85.0147 24.2272 85.1628 24.1886 85.2959 24.1113C85.429 24.034 85.5342 23.9245 85.6115 23.7828C85.6931 23.6369 85.7339 23.4651 85.7339 23.2676C85.7339 23.0659 85.6931 22.8941 85.6115 22.7524C85.5342 22.6108 85.429 22.5013 85.2959 22.424C85.1628 22.3467 85.0147 22.3081 84.8516 22.3081C84.6841 22.3081 84.5339 22.3467 84.4008 22.424C84.2677 22.5013 84.1603 22.6108 84.0788 22.7524C84.0015 22.8941 83.9629 23.0659 83.9629 23.2676C83.9629 23.4651 84.0015 23.6369 84.0788 23.7828C84.1603 23.9245 84.2677 24.034 84.4008 24.1113C84.5339 24.1886 84.6841 24.2272 84.8516 24.2272ZM85.7596 25V24.2916L85.7789 23.2612L85.7145 22.2372V20.2215H86.7192V25H85.7596ZM88.9512 25L90.9605 20.492H91.9909L94.0066 25H92.9118L91.2631 21.0201H91.6753L90.0202 25H88.9512ZM89.9558 24.034L90.2327 23.2419H92.5511L92.8345 24.034H89.9558ZM95.8024 25.0515C95.5148 25.0515 95.2572 24.9957 95.0296 24.8841C94.8064 24.7725 94.6325 24.6029 94.508 24.3753C94.3835 24.1435 94.3212 23.8494 94.3212 23.493V21.5353H95.3259V23.3449C95.3259 23.6326 95.386 23.8451 95.5062 23.9825C95.6307 24.1156 95.8046 24.1821 96.0278 24.1821C96.1824 24.1821 96.3198 24.1499 96.44 24.0855C96.5602 24.0168 96.6547 23.9138 96.7234 23.7764C96.7921 23.6347 96.8264 23.4587 96.8264 23.2483V21.5353H97.831V25H96.8779V24.0469L97.0518 24.3238C96.9359 24.5642 96.7641 24.7467 96.5366 24.8712C96.3133 24.9914 96.0686 25.0515 95.8024 25.0515ZM100.179 25.0515C99.7707 25.0515 99.453 24.9485 99.2254 24.7424C98.9979 24.532 98.8841 24.2208 98.8841 23.8086V20.7689H99.8888V23.7957C99.8888 23.9417 99.9274 24.0555 100.005 24.137C100.082 24.2143 100.187 24.253 100.32 24.253C100.479 24.253 100.614 24.21 100.726 24.1242L100.996 24.8326C100.893 24.9055 100.769 24.9614 100.623 25C100.481 25.0343 100.333 25.0515 100.179 25.0515ZM98.3496 22.3854V21.6126H100.752V22.3854H98.3496ZM103.666 21.4838C103.941 21.4838 104.186 21.5396 104.4 21.6512C104.619 21.7585 104.791 21.926 104.916 22.1535C105.04 22.3768 105.102 22.6644 105.102 23.0165V25H104.098V23.171C104.098 22.892 104.036 22.6859 103.911 22.5528C103.791 22.4197 103.619 22.3532 103.396 22.3532C103.237 22.3532 103.093 22.3875 102.964 22.4562C102.84 22.5206 102.741 22.6215 102.668 22.7589C102.599 22.8963 102.565 23.0723 102.565 23.287V25H101.56V20.2215H102.565V22.4948L102.34 22.205C102.464 21.9732 102.642 21.795 102.874 21.6705C103.106 21.546 103.37 21.4838 103.666 21.4838ZM107.687 25.0515C107.318 25.0515 106.989 24.9742 106.702 24.8197C106.418 24.6651 106.193 24.4547 106.025 24.1886C105.862 23.9181 105.781 23.6111 105.781 23.2676C105.781 22.9199 105.862 22.6129 106.025 22.3467C106.193 22.0762 106.418 21.8659 106.702 21.7156C106.989 21.561 107.318 21.4838 107.687 21.4838C108.052 21.4838 108.378 21.561 108.666 21.7156C108.953 21.8659 109.179 22.0741 109.342 22.3403C109.505 22.6065 109.587 22.9156 109.587 23.2676C109.587 23.6111 109.505 23.9181 109.342 24.1886C109.179 24.4547 108.953 24.6651 108.666 24.8197C108.378 24.9742 108.052 25.0515 107.687 25.0515ZM107.687 24.2272C107.854 24.2272 108.005 24.1886 108.138 24.1113C108.271 24.034 108.376 23.9245 108.453 23.7828C108.53 23.6369 108.569 23.4651 108.569 23.2676C108.569 23.0659 108.53 22.8941 108.453 22.7524C108.376 22.6108 108.271 22.5013 108.138 22.424C108.005 22.3467 107.854 22.3081 107.687 22.3081C107.519 22.3081 107.369 22.3467 107.236 22.424C107.103 22.5013 106.996 22.6108 106.914 22.7524C106.837 22.8941 106.798 23.0659 106.798 23.2676C106.798 23.4651 106.837 23.6369 106.914 23.7828C106.996 23.9245 107.103 24.034 107.236 24.1113C107.369 24.1886 107.519 24.2272 107.687 24.2272ZM110.258 25V21.5353H111.218V22.5142L111.082 22.2308C111.186 21.9861 111.351 21.8015 111.578 21.677C111.806 21.5482 112.083 21.4838 112.409 21.4838V22.4111C112.366 22.4068 112.328 22.4047 112.293 22.4047C112.259 22.4004 112.222 22.3982 112.184 22.3982C111.909 22.3982 111.686 22.4777 111.514 22.6365C111.347 22.7911 111.263 23.0337 111.263 23.3642V25H110.258Z" fill="#ADADAD"/>
</svg>
